<svg xmlns="http://www.w3.org/2000/svg" viewBox="0 0 880 480" font-family="Arial, sans-serif" font-size="11">
  <defs>
    <marker id="a1" markerWidth="7" markerHeight="5" refX="7" refY="2.5" orient="auto">
      <path d="M0,0 L7,2.5 L0,5 Z" fill="#333"/>
    </marker>
    <marker id="a2" markerWidth="7" markerHeight="5" refX="7" refY="2.5" orient="auto">
      <path d="M0,0 L7,2.5 L0,5 Z" fill="#C62828"/>
    </marker>
  </defs>

  <!-- Region backgrounds -->
  <rect x="5" y="5" width="100" height="450" rx="6" fill="#F5F5F5" stroke="#DDD" stroke-width="1"/>
  <text x="55" y="22" text-anchor="middle" font-size="11" font-weight="bold" fill="#888">Backbone</text>

  <rect x="115" y="5" width="360" height="450" rx="6" fill="#FAFAFA" stroke="#DDD" stroke-width="1"/>
  <text x="295" y="22" text-anchor="middle" font-size="11" font-weight="bold" fill="#888">Top-Down</text>

  <rect x="485" y="5" width="280" height="450" rx="6" fill="#F5F5F5" stroke="#DDD" stroke-width="1"/>
  <text x="625" y="22" text-anchor="middle" font-size="11" font-weight="bold" fill="#888">Bottom-Up</text>

  <rect x="775" y="5" width="95" height="450" rx="6" fill="#FAFAFA" stroke="#DDD" stroke-width="1"/>
  <text x="822" y="22" text-anchor="middle" font-size="11" font-weight="bold" fill="#888">Output</text>

  <!-- Backbone features -->
  <rect x="25" y="60" width="60" height="28" rx="4" fill="#E8F0FE" stroke="#4A7DC6" stroke-width="1.5"/>
  <text x="55" y="79" text-anchor="middle" font-weight="bold" fill="#333" font-size="11">P₂</text>
  <text x="15" y="78" font-size="9" fill="#aaa">1/4</text>

  <rect x="25" y="160" width="60" height="28" rx="4" fill="#E8F0FE" stroke="#4A7DC6" stroke-width="1.5"/>
  <text x="55" y="179" text-anchor="middle" font-weight="bold" fill="#333" font-size="11">P₃</text>
  <text x="15" y="178" font-size="9" fill="#aaa">1/8</text>

  <rect x="25" y="270" width="60" height="28" rx="4" fill="#E8F0FE" stroke="#4A7DC6" stroke-width="1.5"/>
  <text x="55" y="289" text-anchor="middle" font-weight="bold" fill="#333" font-size="11">P₄</text>
  <text x="12" y="288" font-size="9" fill="#aaa">1/16</text>

  <rect x="25" y="380" width="60" height="28" rx="4" fill="#E8F0FE" stroke="#4A7DC6" stroke-width="1.5"/>
  <text x="55" y="399" text-anchor="middle" font-weight="bold" fill="#333" font-size="11">P₅</text>
  <text x="12" y="398" font-size="9" fill="#aaa">1/32</text>

  <!-- ===== TOP-DOWN PATH ===== -->

  <!-- AIFI on P5 -->
  <line x1="85" y1="394" x2="128" y2="394" stroke="#333" stroke-width="1.2" marker-end="url(#a1)"/>
  <rect x="136" y="380" width="50" height="28" rx="4" fill="#E0F7FA" stroke="#00838F" stroke-width="1.5"/>
  <text x="161" y="398" text-anchor="middle" font-size="10" fill="#333">AIFI</text>

  <!-- P4 aux → P5 node (dashed red) -->
  <line x1="85" y1="284" x2="125" y2="284" stroke="#C62828" stroke-width="1.2" stroke-dasharray="5,3"/>
  <line x1="125" y1="284" x2="125" y2="394" stroke="#C62828" stroke-width="1.2" stroke-dasharray="5,3"/>
  <line x1="125" y1="394" x2="200" y2="394" stroke="#C62828" stroke-width="1.2" stroke-dasharray="5,3"/>
  <rect x="128" y="332" width="22" height="16" rx="2" fill="#FFEBEE" stroke="#C62828" stroke-width="0.8"/>
  <text x="139" y="344" text-anchor="middle" font-size="7" fill="#C62828">↓s2</text>

  <!-- Cat+RepC3 → P̃5 -->
  <rect x="208" y="380" width="36" height="28" rx="3" fill="#FFF" stroke="#999" stroke-width="1.2"/>
  <text x="226" y="398" text-anchor="middle" font-size="10" fill="#333">Cat</text>
  <line x1="244" y1="394" x2="268" y2="394" stroke="#333" stroke-width="1.2" marker-end="url(#a1)"/>
  <rect x="276" y="380" width="56" height="28" rx="4" fill="#F3E5F5" stroke="#7B1FA2" stroke-width="1.5"/>
  <text x="304" y="398" text-anchor="middle" font-size="10" fill="#333">RepC3</text>
  <text x="350" y="398" text-anchor="start" font-size="10" font-weight="bold" fill="#7B1FA2">P̃₅</text>

  <!-- Up(P̃5) to P4 node -->
  <line x1="332" y1="380" x2="332" y2="290" stroke="#333" stroke-width="1.2"/>
  <line x1="332" y1="290" x2="348" y2="290" stroke="#333" stroke-width="1.2"/>
  <rect x="334" y="330" width="22" height="16" rx="2" fill="#E3F2FD" stroke="#1565C0" stroke-width="0.8"/>
  <text x="345" y="342" text-anchor="middle" font-size="7" fill="#1565C0">Up</text>

  <!-- P3 aux → P4 node (dashed red) -->
  <line x1="85" y1="174" x2="135" y2="174" stroke="#C62828" stroke-width="1.2" stroke-dasharray="5,3"/>
  <line x1="135" y1="174" x2="135" y2="280" stroke="#C62828" stroke-width="1.2" stroke-dasharray="5,3"/>
  <line x1="135" y1="280" x2="348" y2="280" stroke="#C62828" stroke-width="1.2" stroke-dasharray="5,3"/>
  <rect x="138" y="220" width="22" height="16" rx="2" fill="#FFEBEE" stroke="#C62828" stroke-width="0.8"/>
  <text x="149" y="232" text-anchor="middle" font-size="7" fill="#C62828">↓s2</text>

  <!-- P4 original -->
  <line x1="85" y1="284" x2="348" y2="284" stroke="#333" stroke-width="1.2"/>

  <!-- Cat+RepC3 → P̃4 -->
  <rect x="356" y="270" width="36" height="28" rx="3" fill="#FFF" stroke="#999" stroke-width="1.2"/>
  <text x="374" y="288" text-anchor="middle" font-size="10" fill="#333">Cat</text>
  <line x1="392" y1="284" x2="410" y2="284" stroke="#333" stroke-width="1.2" marker-end="url(#a1)"/>
  <rect x="418" y="270" width="56" height="28" rx="4" fill="#F3E5F5" stroke="#7B1FA2" stroke-width="1.5"/>
  <text x="446" y="288" text-anchor="middle" font-size="10" fill="#333">RepC3</text>
  <text x="446" y="265" text-anchor="middle" font-size="10" font-weight="bold" fill="#7B1FA2">P̃₄</text>

  <!-- Up(P̃4) to P3 node -->
  <line x1="446" y1="270" x2="446" y2="185" stroke="#333" stroke-width="1.2"/>
  <line x1="446" y1="185" x2="348" y2="185" stroke="#333" stroke-width="1.2"/>
  <rect x="448" y="220" width="22" height="16" rx="2" fill="#E3F2FD" stroke="#1565C0" stroke-width="0.8"/>
  <text x="459" y="232" text-anchor="middle" font-size="7" fill="#1565C0">Up</text>

  <!-- P2 aux → P3 node (dashed red) -->
  <line x1="85" y1="74" x2="145" y2="74" stroke="#C62828" stroke-width="1.2" stroke-dasharray="5,3"/>
  <line x1="145" y1="74" x2="145" y2="175" stroke="#C62828" stroke-width="1.2" stroke-dasharray="5,3"/>
  <line x1="145" y1="175" x2="348" y2="175" stroke="#C62828" stroke-width="1.2" stroke-dasharray="5,3"/>
  <rect x="148" y="118" width="22" height="16" rx="2" fill="#FFEBEE" stroke="#C62828" stroke-width="0.8"/>
  <text x="159" y="130" text-anchor="middle" font-size="7" fill="#C62828">↓s2</text>

  <!-- P3 original -->
  <line x1="85" y1="174" x2="348" y2="174" stroke="#333" stroke-width="1.2"/>

  <!-- Cat+RepC3 → P̃3_init -->
  <rect x="356" y="162" width="36" height="28" rx="3" fill="#FFF" stroke="#999" stroke-width="1.2"/>
  <text x="374" y="180" text-anchor="middle" font-size="10" fill="#333">Cat</text>
  <line x1="392" y1="176" x2="410" y2="176" stroke="#333" stroke-width="1.2" marker-end="url(#a1)"/>
  <rect x="418" y="162" width="56" height="28" rx="4" fill="#F3E5F5" stroke="#7B1FA2" stroke-width="1.5"/>
  <text x="446" y="180" text-anchor="middle" font-size="10" fill="#333">RepC3</text>
  <text x="446" y="157" text-anchor="middle" font-size="9" font-weight="bold" fill="#7B1FA2">P̃₃ⁱⁿⁱᵗ</text>

  <!-- ===== BOTTOM-UP PATH ===== -->

  <!-- Up(P̃4) + P̃3_init → O3 -->
  <line x1="446" y1="260" x2="500" y2="260" stroke="#333" stroke-width="1" stroke-dasharray="3,2"/>
  <line x1="500" y1="260" x2="500" y2="176" stroke="#333" stroke-width="1" stroke-dasharray="3,2"/>
  <line x1="500" y1="176" x2="520" y2="176" stroke="#333" stroke-width="1"/>
  <rect x="502" y="210" width="22" height="16" rx="2" fill="#E3F2FD" stroke="#1565C0" stroke-width="0.8"/>
  <text x="513" y="222" text-anchor="middle" font-size="7" fill="#1565C0">Up</text>

  <line x1="474" y1="176" x2="520" y2="170" stroke="#333" stroke-width="1"/>

  <rect x="528" y="160" width="36" height="28" rx="3" fill="#FFF" stroke="#999" stroke-width="1.2"/>
  <text x="546" y="178" text-anchor="middle" font-size="10" fill="#333">Cat</text>
  <line x1="564" y1="174" x2="582" y2="174" stroke="#333" stroke-width="1.2" marker-end="url(#a1)"/>
  <rect x="590" y="160" width="56" height="28" rx="4" fill="#FFF3E0" stroke="#E65100" stroke-width="1.5"/>
  <text x="618" y="178" text-anchor="middle" font-size="10" fill="#333">RepC3</text>

  <!-- O3 output line -->
  <line x1="646" y1="174" x2="795" y2="174" stroke="#333" stroke-width="1.5" marker-end="url(#a1)"/>
  <rect x="803" y="160" width="46" height="28" rx="4" fill="#C8E6C9" stroke="#2E7D32" stroke-width="1.5"/>
  <text x="826" y="178" text-anchor="middle" font-weight="bold" font-size="11" fill="#333">O₃</text>

  <!-- P̃3_init ↓ to O4 -->
  <line x1="474" y1="190" x2="492" y2="190" stroke="#333" stroke-width="1" stroke-dasharray="3,2"/>
  <line x1="492" y1="190" x2="492" y2="284" stroke="#333" stroke-width="1" stroke-dasharray="3,2"/>
  <line x1="492" y1="284" x2="520" y2="284" stroke="#333" stroke-width="1"/>
  <rect x="494" y="230" width="22" height="16" rx="2" fill="#FFEBEE" stroke="#C62828" stroke-width="0.8"/>
  <text x="505" y="242" text-anchor="middle" font-size="7" fill="#C62828">↓s2</text>

  <!-- O3 ↓ to O4 -->
  <line x1="660" y1="188" x2="660" y2="290" stroke="#333" stroke-width="1"/>
  <line x1="660" y1="290" x2="520" y2="290" stroke="#333" stroke-width="1"/>
  <rect x="662" y="230" width="22" height="16" rx="2" fill="#FFEBEE" stroke="#C62828" stroke-width="0.8"/>
  <text x="673" y="242" text-anchor="middle" font-size="7" fill="#C62828">↓s2</text>

  <!-- P̃4 to O4 -->
  <line x1="474" y1="290" x2="520" y2="290" stroke="#333" stroke-width="1"/>

  <!-- Up(P̃5) to O4 -->
  <line x1="332" y1="394" x2="508" y2="394" stroke="#333" stroke-width="1" stroke-dasharray="3,2"/>
  <line x1="508" y1="394" x2="508" y2="296" stroke="#333" stroke-width="1" stroke-dasharray="3,2"/>
  <line x1="508" y1="296" x2="520" y2="296" stroke="#333" stroke-width="1"/>
  <rect x="510" y="340" width="22" height="16" rx="2" fill="#E3F2FD" stroke="#1565C0" stroke-width="0.8"/>
  <text x="521" y="352" text-anchor="middle" font-size="7" fill="#1565C0">Up</text>

  <rect x="528" y="272" width="36" height="28" rx="3" fill="#FFF" stroke="#999" stroke-width="1.2"/>
  <text x="546" y="290" text-anchor="middle" font-size="10" fill="#333">Cat</text>
  <line x1="564" y1="286" x2="582" y2="286" stroke="#333" stroke-width="1.2" marker-end="url(#a1)"/>
  <rect x="590" y="272" width="56" height="28" rx="4" fill="#FFF3E0" stroke="#E65100" stroke-width="1.5"/>
  <text x="618" y="290" text-anchor="middle" font-size="10" fill="#333">RepC3</text>

  <line x1="646" y1="286" x2="795" y2="286" stroke="#333" stroke-width="1.5" marker-end="url(#a1)"/>
  <rect x="803" y="272" width="46" height="28" rx="4" fill="#C8E6C9" stroke="#2E7D32" stroke-width="1.5"/>
  <text x="826" y="290" text-anchor="middle" font-weight="bold" font-size="11" fill="#333">O₄</text>

  <!-- P̃4 ↓ to O5 -->
  <line x1="474" y1="298" x2="488" y2="298" stroke="#333" stroke-width="1" stroke-dasharray="3,2"/>
  <line x1="488" y1="298" x2="488" y2="394" stroke="#333" stroke-width="1" stroke-dasharray="3,2"/>
  <line x1="488" y1="394" x2="520" y2="394" stroke="#333" stroke-width="1"/>
  <rect x="490" y="340" width="22" height="16" rx="2" fill="#FFEBEE" stroke="#C62828" stroke-width="0.8"/>
  <text x="501" y="352" text-anchor="middle" font-size="7" fill="#C62828">↓s2</text>

  <!-- O4 ↓ to O5 -->
  <line x1="670" y1="300" x2="670" y2="400" stroke="#333" stroke-width="1"/>
  <line x1="670" y1="400" x2="520" y2="400" stroke="#333" stroke-width="1"/>
  <rect x="672" y="344" width="22" height="16" rx="2" fill="#FFEBEE" stroke="#C62828" stroke-width="0.8"/>
  <text x="683" y="356" text-anchor="middle" font-size="7" fill="#C62828">↓s2</text>

  <!-- P̃5 to O5 -->
  <line x1="332" y1="408" x2="332" y2="408" stroke="#333" stroke-width="1"/>
  <line x1="370" y1="394" x2="520" y2="406" stroke="#333" stroke-width="1"/>

  <rect x="528" y="384" width="36" height="28" rx="3" fill="#FFF" stroke="#999" stroke-width="1.2"/>
  <text x="546" y="402" text-anchor="middle" font-size="10" fill="#333">Cat</text>
  <line x1="564" y1="398" x2="582" y2="398" stroke="#333" stroke-width="1.2" marker-end="url(#a1)"/>
  <rect x="590" y="384" width="56" height="28" rx="4" fill="#FFF3E0" stroke="#E65100" stroke-width="1.5"/>
  <text x="618" y="402" text-anchor="middle" font-size="10" fill="#333">RepC3</text>

  <line x1="646" y1="398" x2="795" y2="398" stroke="#333" stroke-width="1.5" marker-end="url(#a1)"/>
  <rect x="803" y="384" width="46" height="28" rx="4" fill="#C8E6C9" stroke="#2E7D32" stroke-width="1.5"/>
  <text x="826" y="402" text-anchor="middle" font-weight="bold" font-size="11" fill="#333">O₅</text>

  <!-- Legend -->
  <rect x="125" y="460" width="340" height="22" rx="3" fill="#FFF" stroke="#DDD" stroke-width="1"/>
  <line x1="140" y1="471" x2="165" y2="471" stroke="#333" stroke-width="1.2"/>
  <text x="170" y="475" font-size="9" fill="#666">Standard</text>
  <line x1="220" y1="471" x2="245" y2="471" stroke="#C62828" stroke-width="1.2" stroke-dasharray="5,3"/>
  <text x="250" y="475" font-size="9" fill="#666">Cross-layer Aux</text>
  <line x1="330" y1="471" x2="355" y2="471" stroke="#333" stroke-width="1.2" stroke-dasharray="3,2"/>
  <text x="360" y="475" font-size="9" fill="#666">Dense</text>

  <!-- Caption -->
  <text x="440" y="475" text-anchor="middle" font-size="0" fill="#666"></text>
</svg>
